<svg width="640" height="420" viewBox="0 0 640 420" fill="none" xmlns="http://www.w3.org/2000/svg">
  <defs>
    <linearGradient id="authLightCard" x1="0" y1="0" x2="1" y2="1">
      <stop offset="0%" stop-color="#FFFDFE"/>
      <stop offset="100%" stop-color="#F2EEFF"/>
    </linearGradient>
    <linearGradient id="authLightAccent" x1="0" y1="0" x2="1" y2="1">
      <stop offset="0%" stop-color="#FFAAC9"/>
      <stop offset="52%" stop-color="#A9CBFF"/>
      <stop offset="100%" stop-color="#8FE6D3"/>
    </linearGradient>
    <radialGradient id="authLightHalo" cx="0" cy="0" r="1" gradientUnits="userSpaceOnUse" gradientTransform="translate(298 196) rotate(90) scale(154 164)">
      <stop stop-color="#FFD7E9" stop-opacity="0.72"/>
      <stop offset="1" stop-color="#FFD7E9" stop-opacity="0"/>
    </radialGradient>
  </defs>

  <circle cx="298" cy="196" r="154" fill="url(#authLightHalo)"/>
  <g transform="translate(130 96)">
    <rect x="0" y="0" width="236" height="184" rx="34" fill="url(#authLightCard)"/>
    <rect x="18" y="18" width="200" height="148" rx="26" fill="#FFFFFF" fill-opacity="0.86"/>
    <rect x="34" y="40" width="84" height="12" rx="6" fill="#75659E" fill-opacity="0.86"/>
    <rect x="34" y="60" width="110" height="8" rx="4" fill="#A18FBE" fill-opacity="0.36"/>
    <path d="M98 104C98 84.1177 114.118 68 134 68C153.882 68 170 84.1177 170 104V114H98V104Z" fill="#A9CBFF" fill-opacity="0.86"/>
    <rect x="86" y="110" width="96" height="54" rx="20" fill="url(#authLightAccent)"/>
    <circle cx="134" cy="134" r="10" fill="#FFFFFF"/>
    <rect x="128" y="134" width="12" height="18" rx="6" fill="#FFFFFF"/>
  </g>

  <g transform="translate(384 132) rotate(8 84 86)">
    <rect x="0" y="0" width="168" height="172" rx="30" fill="#FFF8FD" fill-opacity="0.96"/>
    <rect x="24" y="26" width="74" height="50" rx="18" fill="url(#authLightAccent)" fill-opacity="0.84"/>
    <rect x="108" y="30" width="36" height="8" rx="4" fill="#9181B5" fill-opacity="0.34"/>
    <rect x="108" y="44" width="28" height="8" rx="4" fill="#9181B5" fill-opacity="0.24"/>
    <rect x="24" y="98" width="120" height="10" rx="5" fill="#75659E" fill-opacity="0.88"/>
    <rect x="24" y="116" width="96" height="8" rx="4" fill="#A18FBE" fill-opacity="0.36"/>
    <rect x="24" y="134" width="72" height="8" rx="4" fill="#A18FBE" fill-opacity="0.26"/>
  </g>

  <g transform="translate(58 280)">
    <rect x="0" y="0" width="124" height="94" rx="24" fill="#FFF7FC" fill-opacity="0.9"/>
    <circle cx="32" cy="54" r="20" fill="#8F7CD0" fill-opacity="0.16"/>
    <circle cx="92" cy="54" r="20" fill="#A9CBFF" fill-opacity="0.2"/>
    <path d="M28 58C32 52 40 52 44 58" stroke="#7A6AA0" stroke-width="5" stroke-linecap="round"/>
    <path d="M88 58C92 52 100 52 104 58" stroke="#7A6AA0" stroke-width="5" stroke-linecap="round"/>
  </g>

  <g fill="#FFB7D1" fill-opacity="0.68">
    <ellipse cx="72" cy="72" rx="10" ry="5" transform="rotate(-24 72 72)"/>
    <ellipse cx="566" cy="80" rx="12" ry="6" transform="rotate(24 566 80)"/>
    <ellipse cx="610" cy="228" rx="12" ry="6" transform="rotate(-36 610 228)"/>
  </g>
</svg>